<svg id="visual" viewBox="0 0 900 600" width="900" height="600" xmlns="http://www.w3.org/2000/svg" xmlns:xlink="http://www.w3.org/1999/xlink" version="1.1"><rect x="0" y="0" width="900" height="600" fill="#002233"></rect><path d="M0 495L21.5 498.7C43 502.3 86 509.7 128.8 511C171.7 512.3 214.3 507.7 257.2 486C300 464.3 343 425.7 385.8 407.3C428.7 389 471.3 391 514.2 401.8C557 412.7 600 432.3 642.8 452.7C685.7 473 728.3 494 771.2 484.5C814 475 857 435 878.5 415L900 395L900 601L878.5 601C857 601 814 601 771.2 601C728.3 601 685.7 601 642.8 601C600 601 557 601 514.2 601C471.3 601 428.7 601 385.8 601C343 601 300 601 257.2 601C214.3 601 171.7 601 128.8 601C86 601 43 601 21.5 601L0 601Z" fill="#1B6EC2" stroke-linecap="round" stroke-linejoin="miter"></path></svg>